<svg width="1200" height="630" viewBox="0 0 1200 630" fill="none" xmlns="http://www.w3.org/2000/svg">
  <rect width="1200" height="630" rx="28" fill="#07111F"/>
  <circle cx="936" cy="214" r="188" fill="url(#paint0_radial)" fill-opacity="0.9"/>
  <circle cx="824" cy="418" r="244" fill="url(#paint1_radial)" fill-opacity="0.55"/>
  <rect x="86" y="90" width="114" height="114" rx="28" fill="#0F172A"/>
  <path d="M118 122H144C157.255 122 168 132.745 168 146V178H144C130.745 178 120 167.255 120 154V124C120 122.895 120.895 122 122 122H118Z" fill="#0F766E"/>
  <path d="M136 134H170C171.105 134 172 134.895 172 136V150C172 163.255 161.255 174 148 174H136V134Z" fill="#1D4ED8"/>
  <text x="86" y="280" fill="#38BDF8" font-size="68" font-family="Arial, sans-serif" font-weight="700">Moonworld Docs</text>
  <text x="86" y="366" fill="#F8FAFC" font-size="78" font-family="Arial, sans-serif" font-weight="700">Project Archive &amp; Notes</text>
  <text x="86" y="448" fill="#94A3B8" font-size="34" font-family="Arial, sans-serif">seihwanMoon · docs.moonworld.uk · VitePress + Cloudflare Pages</text>
  <defs>
    <radialGradient id="paint0_radial" cx="0" cy="0" r="1" gradientUnits="userSpaceOnUse" gradientTransform="translate(936 214) rotate(90) scale(188)">
      <stop stop-color="#1D4ED8"/>
      <stop offset="1" stop-color="#1D4ED8" stop-opacity="0"/>
    </radialGradient>
    <radialGradient id="paint1_radial" cx="0" cy="0" r="1" gradientUnits="userSpaceOnUse" gradientTransform="translate(824 418) rotate(90) scale(244)">
      <stop stop-color="#0F766E"/>
      <stop offset="1" stop-color="#0F766E" stop-opacity="0"/>
    </radialGradient>
  </defs>
</svg>
